<?xml version="1.0" encoding="UTF-8" standalone="no"?>
<svg
   xmlns:dc="http://purl.org/dc/elements/1.1/"
   xmlns:cc="http://creativecommons.org/ns#"
   xmlns:rdf="http://www.w3.org/1999/02/22-rdf-syntax-ns#"
   xmlns:svg="http://www.w3.org/2000/svg"
   xmlns="http://www.w3.org/2000/svg"
   xmlns:sodipodi="http://sodipodi.sourceforge.net/DTD/sodipodi-0.dtd"
   xmlns:inkscape="http://www.inkscape.org/namespaces/inkscape"
   inkscape:version="1.0 (4035a4fb49, 2020-05-01)"
   sodipodi:docname="logo.svg"
   xml:space="preserve"
   enable-background="new 0 0 1400 980"
   viewBox="0 0 399.89999 400.39999"
   height="400.39999"
   width="399.89999"
   y="0px"
   x="0px"
   id="Layer_1"
   version="1.1"><metadata
   id="metadata333"><rdf:RDF><cc:Work
       rdf:about=""><dc:format>image/svg+xml</dc:format><dc:type
         rdf:resource="http://purl.org/dc/dcmitype/StillImage" /><dc:title></dc:title></cc:Work></rdf:RDF></metadata><defs
   id="defs331">
	
	
	
	
	
	
	
	
	
</defs><sodipodi:namedview
   inkscape:current-layer="Layer_1"
   inkscape:window-maximized="1"
   inkscape:window-y="-8"
   inkscape:window-x="-8"
   inkscape:cy="311.1"
   inkscape:cx="91.93333"
   inkscape:zoom="0.75"
   showgrid="false"
   id="namedview329"
   inkscape:window-height="1017"
   inkscape:window-width="1920"
   inkscape:pageshadow="2"
   inkscape:pageopacity="0"
   guidetolerance="10"
   gridtolerance="10"
   objecttolerance="10"
   borderopacity="1"
   bordercolor="#666666"
   pagecolor="#ffffff" />
<g
   transform="translate(-600.7,-176.1)"
   id="g134">
		<g
   id="g88">
			<path
   fill="#3d3d3d"
   d="m 803.8,576.5 h -6.2 l -4.8,-8.3 c -2,-3.3 -5.4,-5.3 -9.3,-5.3 -3.2,0 -6.1,1.3 -8.2,3.8 l -6.3,7.3 -6.1,-1.1 -3.3,-9 c -1.6,-4.3 -5.6,-7 -10.1,-7 -2.5,0 -4.9,0.9 -6.8,2.5 l -7.4,6.1 -5.8,-2.1 -1.7,-9.4 c -0.9,-5.1 -5.4,-8.9 -10.6,-8.9 -1.9,0 -3.6,0.5 -5.3,1.4 l -8.3,4.8 -5.4,-3.1 -0.1,-9.6 c 0,-5.9 -4.9,-10.7 -10.8,-10.7 -1.2,0 -2.5,0.2 -3.6,0.6 l -9,3.2 -4.7,-4 1.6,-9.5 c 0.5,-3.2 -0.3,-6.3 -2.4,-8.8 -2.5,-2.9 -6.3,-4.3 -10.1,-3.7 l -9.5,1.6 -4,-4.7 3.2,-9 c 1.2,-3.3 0.7,-6.9 -1.3,-9.8 -2,-2.9 -5.2,-4.6 -8.8,-4.6 l -9.6,-0.1 -3.1,-5.4 4.7,-8.3 c 1.8,-3.1 1.9,-6.7 0.4,-9.9 -1.5,-3.2 -4.4,-5.4 -7.8,-6.1 l -9.4,-1.7 -2.1,-5.8 6.1,-7.4 c 2.3,-2.7 3,-6.2 2.1,-9.7 -0.9,-3.4 -3.3,-6.1 -6.7,-7.3 l -9,-3.3 -1.1,-6.1 7.3,-6.2 c 2.7,-2.3 4.1,-5.6 3.8,-9.2 -0.3,-3.5 -2.2,-6.6 -5.3,-8.4 l -8.3,-4.9 v -6.2 l 8.3,-4.8 c 3.1,-1.8 5,-4.8 5.3,-8.4 0.3,-3.5 -1.1,-6.9 -3.8,-9.2 l -7.3,-6.2 1.1,-6.1 9,-3.3 c 3.3,-1.2 5.7,-3.9 6.7,-7.3 0.9,-3.4 0.1,-6.9 -2.1,-9.7 l -6.1,-7.4 2.1,-5.8 9.4,-1.7 c 3.5,-0.6 6.3,-2.8 7.8,-6.1 1.5,-3.2 1.3,-6.8 -0.4,-9.9 l -4.7,-8.3 3.1,-5.4 9.6,-0.1 c 3.5,0 6.7,-1.7 8.8,-4.6 2,-2.9 2.5,-6.5 1.3,-9.8 l -3.2,-9 4,-4.7 9.5,1.6 c 3.8,0.6 7.6,-0.8 10.1,-3.7 2.1,-2.5 2.9,-5.6 2.4,-8.8 l -1.6,-9.5 4.7,-4 9,3.2 c 1.2,0.4 2.4,0.6 3.6,0.6 5.9,0 10.7,-4.8 10.8,-10.7 l 0.1,-9.6 5.4,-3.1 8.3,4.7 c 1.7,0.9 3.4,1.4 5.3,1.4 5.2,0 9.7,-3.7 10.6,-8.9 l 1.7,-9.4 5.8,-2.1 7.4,6.1 c 2,1.6 4.3,2.5 6.8,2.5 4.6,0 8.6,-2.8 10.1,-7 l 3.3,-9 6.1,-1.1 6.2,7.3 c 2.1,2.5 5,3.8 8.2,3.8 3.9,0 7.4,-2 9.3,-5.3 l 4.8,-8.3 h 6.2 l 4.9,8.3 c 2,3.3 5.4,5.3 9.3,5.3 3.2,0 6.1,-1.3 8.2,-3.8 l 6.2,-7.3 6.1,1.1 3.3,9 c 1.6,4.3 5.6,7 10.1,7 2.5,0 4.9,-0.9 6.8,-2.5 l 7.4,-6.1 5.8,2.1 1.7,9.4 c 0.9,5.1 5.4,8.9 10.6,8.9 1.9,0 3.6,-0.5 5.3,-1.4 l 8.3,-4.7 5.4,3.1 0.1,9.6 c 0,5.9 4.9,10.7 10.8,10.7 1.2,0 2.5,-0.2 3.6,-0.6 l 9,-3.2 4.7,4 -1.6,9.5 c -0.5,3.2 0.3,6.3 2.4,8.8 2.5,2.9 6.3,4.3 10.1,3.7 l 9.5,-1.6 4,4.7 -3.2,9 c -1.2,3.3 -0.7,6.9 1.3,9.8 2,2.9 5.2,4.6 8.8,4.6 l 9.6,0.1 3.1,5.4 -4.7,8.3 c -1.8,3.1 -1.9,6.7 -0.4,9.9 1.5,3.2 4.4,5.4 7.8,6.1 l 9.4,1.7 2.1,5.8 -6.1,7.4 c -2.3,2.7 -3,6.2 -2.1,9.7 0.9,3.4 3.3,6.1 6.7,7.3 l 9,3.3 1.1,6.1 -7.3,6.2 c -2.7,2.3 -4.1,5.6 -3.8,9.2 0.3,3.5 2.2,6.6 5.3,8.4 l 8.3,4.8 v 6.2 l -8.3,4.9 c -3.1,1.8 -5,4.8 -5.3,8.4 -0.3,3.5 1.1,6.9 3.8,9.2 l 7.3,6.2 -1.1,6.1 -9,3.3 c -3.3,1.2 -5.7,3.9 -6.7,7.3 -0.9,3.4 -0.1,6.9 2.1,9.7 l 6.1,7.4 -2.1,5.8 -9.4,1.7 c -3.5,0.6 -6.3,2.8 -7.8,6.1 -1.5,3.2 -1.3,6.8 0.4,9.9 l 4.7,8.3 -3.1,5.4 -9.6,0.1 c -3.5,0 -6.7,1.7 -8.8,4.6 -2,2.9 -2.5,6.5 -1.3,9.8 l 3.2,9 -4,4.7 -9.5,-1.6 c -3.8,-0.6 -7.6,0.8 -10.1,3.7 -2.1,2.5 -2.9,5.6 -2.4,8.8 l 1.6,9.5 -4.7,4 -9,-3.2 c -1.2,-0.4 -2.4,-0.6 -3.6,-0.6 -5.9,0 -10.7,4.8 -10.8,10.7 l -0.1,9.6 -5.4,3.1 -8.3,-4.8 c -1.7,-0.9 -3.4,-1.4 -5.3,-1.4 -5.2,0 -9.7,3.7 -10.6,8.9 l -1.7,9.4 -5.8,2.1 -7.4,-6.1 c -2,-1.6 -4.3,-2.5 -6.8,-2.5 -4.6,0 -8.6,2.8 -10.1,7 l -3.3,9 -6.1,1.1 -6.2,-7.3 c -2.1,-2.5 -5,-3.8 -8.2,-3.8 -3.9,0 -7.4,2 -9.3,5.3 z m -20.4,-20.8 c 6.5,0 12.3,3.3 15.5,8.9 l 1.7,3 1.8,-3 c 3.3,-5.6 9.1,-8.9 15.5,-8.9 5.3,0 10.3,2.3 13.7,6.3 l 2.2,2.6 1.2,-3.3 c 2.6,-7.1 9.3,-11.7 16.9,-11.7 4.2,0 8.2,1.4 11.4,4.1 l 2.7,2.2 0.6,-3.4 c 1.6,-8.5 9,-14.7 17.7,-14.7 3.1,0 6.1,0.8 8.9,2.4 l 3,1.7 v -3.5 c 0.1,-9.9 8.1,-17.9 17.9,-17.9 2.1,0 4.1,0.4 6.1,1.1 l 3.3,1.2 -0.6,-3.4 c -0.9,-5.2 0.6,-10.5 4,-14.6 4.1,-4.8 10.5,-7.2 16.7,-6.1 l 3.4,0.6 -1.2,-3.3 c -2,-5.6 -1.2,-11.5 2.2,-16.3 3.4,-4.8 8.7,-7.6 14.6,-7.7 h 3.5 l -1.7,-3 c -2.9,-5.1 -3.2,-11.1 -0.7,-16.5 2.5,-5.3 7.3,-9 13.1,-10.1 l 3.4,-0.6 -2.2,-2.7 c -3.8,-4.5 -5,-10.4 -3.5,-16.1 1.5,-5.7 5.6,-10.1 11.1,-12.2 l 3.3,-1.2 -2.6,-2.2 c -4.5,-3.8 -6.8,-9.4 -6.3,-15.3 0.5,-5.9 3.7,-10.9 8.8,-13.9 l 3,-1.8 -3,-1.7 c -5.1,-3 -8.3,-8.1 -8.8,-13.9 -0.5,-5.9 1.8,-11.4 6.3,-15.3 l 2.6,-2.2 -3.2,-1.2 c -5.5,-2.1 -9.6,-6.5 -11.1,-12.2 -1.5,-5.7 -0.2,-11.6 3.5,-16.1 l 2.2,-2.7 -3.4,-0.6 c -5.8,-1.1 -10.6,-4.7 -13.1,-10.1 -2.5,-5.3 -2.2,-11.3 0.7,-16.5 l 1.7,-3 h -3.5 c -5.9,0 -11.2,-2.8 -14.6,-7.7 -3.4,-4.8 -4.2,-10.8 -2.2,-16.3 l 1.2,-3.3 -3.4,0.6 c -6.3,1.1 -12.7,-1.3 -16.7,-6.1 -3.4,-4 -4.9,-9.4 -4,-14.6 l 0.6,-3.4 -3.3,1.2 c -2,0.7 -4,1.1 -6.1,1.1 -9.8,0 -17.9,-8 -17.9,-17.9 V 211 l -3,1.7 c -2.7,1.5 -5.8,2.4 -8.9,2.4 -8.7,0 -16.1,-6.2 -17.7,-14.7 l -0.7,-3.4 -2.7,2.2 c -3.3,2.7 -7.2,4.1 -11.4,4.1 -7.6,0 -14.2,-4.6 -16.9,-11.7 l -1.2,-3.2 -2.3,2.6 c -3.4,4 -8.4,6.3 -13.7,6.3 -6.5,0 -12.3,-3.3 -15.5,-8.9 l -1.8,-3 -1.7,3 c -3.3,5.6 -9.1,8.9 -15.5,8.9 -5.3,0 -10.3,-2.3 -13.7,-6.3 l -2.2,-2.6 -1.2,3.2 c -2.6,7.1 -9.3,11.7 -16.9,11.7 -4.2,0 -8.2,-1.4 -11.4,-4.1 l -2.7,-2.2 -0.6,3.4 c -1.6,8.5 -9,14.7 -17.7,14.7 -3.1,0 -6.1,-0.8 -8.9,-2.4 l -3,-1.7 v 3.5 c -0.1,9.8 -8.1,17.9 -17.9,17.9 -2.1,0 -4.1,-0.4 -6.1,-1.1 l -3.3,-1.2 0.6,3.4 c 0.9,5.2 -0.6,10.5 -4,14.6 -4.1,4.8 -10.5,7.2 -16.7,6.1 l -3.4,-0.6 1.2,3.3 c 2,5.5 1.2,11.5 -2.2,16.3 -3.4,4.8 -8.7,7.6 -14.6,7.7 h -3.5 l 1.7,3 c 2.9,5.1 3.2,11.1 0.7,16.5 -2.5,5.4 -7.3,9 -13.1,10.1 l -3.4,0.6 2.2,2.7 c 3.8,4.5 5,10.4 3.5,16.1 -1.5,5.7 -5.6,10.1 -11.1,12.2 l -3.2,1.2 2.6,2.2 c 4.5,3.8 6.8,9.4 6.3,15.3 -0.5,5.9 -3.7,11 -8.8,13.9 l -3,1.7 3,1.8 c 5.1,3 8.3,8.1 8.8,13.9 0.5,5.9 -1.8,11.4 -6.3,15.3 l -2.6,2.2 3.2,1.2 c 5.5,2.1 9.6,6.5 11.1,12.2 1.5,5.7 0.2,11.6 -3.5,16.1 l -2.2,2.7 3.4,0.6 c 5.8,1.1 10.6,4.7 13.1,10.1 2.5,5.3 2.2,11.4 -0.7,16.5 l -1.7,3 h 3.5 c 5.9,0 11.2,2.8 14.6,7.7 3.4,4.8 4.2,10.8 2.2,16.3 l -1.2,3.3 3.4,-0.6 c 6.3,-1.1 12.7,1.3 16.7,6.1 3.4,4 4.9,9.4 4,14.6 l -0.6,3.4 3.3,-1.2 c 2,-0.7 4,-1.1 6.1,-1.1 9.8,0 17.9,8 17.9,17.9 v 3.5 l 3,-1.7 c 2.7,-1.5 5.8,-2.4 8.9,-2.4 8.7,0 16.1,6.2 17.7,14.7 l 0.6,3.4 2.7,-2.2 c 3.3,-2.7 7.2,-4.1 11.4,-4.1 7.6,0 14.2,4.6 16.9,11.7 l 1.2,3.3 2.2,-2.6 c 3.6,-4 8.6,-6.3 13.8,-6.3 z m 17.3,-10.2 h -0.4 c -3.3,0 -6.4,-1.3 -8.7,-3.6 -2.3,-2.4 -3.6,-5.5 -3.6,-8.8 0.2,-22.8 3.2,-45.4 8.8,-67.2 2.9,-11.1 12.9,-18.9 24.4,-18.9 6.6,0 12.8,2.6 17.5,7.2 16.4,16.2 34.4,31.1 53.4,44 3.4,2.3 5.4,6.2 5.4,10.3 -0.1,4.2 -2.2,8 -5.7,10.3 -27.2,17.4 -58.7,26.7 -91.1,26.7 z m 20.6,-91.4 c -8.2,0 -15.4,5.5 -17.5,13.5 -5.5,21.2 -8.4,43.2 -8.6,65.5 0,1.4 0.5,2.7 1.5,3.7 1,1 2.2,1.5 3.6,1.5 h 0.4 c 31,0 61.2,-8.8 87.2,-25.5 1.5,-1 2.4,-2.6 2.4,-4.4 0,-1.7 -0.8,-3.3 -2.2,-4.3 -19.4,-13.2 -37.7,-28.3 -54.4,-44.8 -3.3,-3.4 -7.7,-5.2 -12.4,-5.2 z m -54.2,87.6 c -0.9,0 -1.9,-0.1 -2.8,-0.3 -31.2,-7.1 -59.8,-23 -82.8,-46.1 -2.3,-2.3 -3.6,-5.5 -3.6,-8.8 0,-3.3 1.3,-6.5 3.7,-8.8 16.1,-15.7 34,-29.4 53.2,-40.7 3.9,-2.3 8.3,-3.5 12.7,-3.5 13.8,0 25.1,11.2 25.1,24.9 0.1,23 2.4,46.2 6.6,68.7 0.7,3.6 -0.3,7.3 -2.6,10.1 -2.3,2.8 -5.8,4.5 -9.5,4.5 z m -19.5,-101 c -3.2,0 -6.3,0.8 -9.1,2.5 -18.7,11 -36.1,24.3 -51.8,39.7 -1,1 -1.6,2.3 -1.6,3.7 0,1.4 0.5,2.7 1.5,3.7 22.1,22.1 49.5,37.4 79.3,44.2 2,0.4 4,-0.2 5.2,-1.8 1,-1.2 1.4,-2.7 1.1,-4.2 -4.3,-22.9 -6.6,-46.5 -6.7,-70 0,-11.1 -9.3,-17.8 -17.9,-17.8 z m 163.7,59.1 c -3.4,0 -6.5,-1.3 -8.8,-3.7 -16,-16.3 -29.9,-34.4 -41.3,-53.8 -4.6,-7.9 -4.7,-17.3 -0.2,-25.2 4.5,-7.9 12.6,-12.6 21.6,-12.7 23.1,-0.1 46.3,-2.4 68.9,-6.6 4.5,-0.8 9.1,0.9 11.9,4.4 2.3,2.9 3.2,6.6 2.4,10.3 -6.9,31.7 -22.7,60.7 -45.9,83.7 -2.3,2.3 -5.4,3.6 -8.6,3.6 z m 42.4,-95.1 c -0.3,0 -0.7,0 -1,0.1 -23.1,4.4 -46.7,6.6 -70.2,6.8 -6.4,0 -12.2,3.4 -15.4,9 -3.2,5.7 -3.2,12.4 0.1,18 11.1,18.9 24.6,36.5 40.2,52.4 1,1 2.3,1.6 3.7,1.6 1.4,0 2.7,-0.5 3.6,-1.5 22.1,-22.1 37.3,-49.8 43.9,-80.2 0.4,-2.1 -0.4,-3.6 -1,-4.3 -0.8,-1.2 -2.3,-1.9 -3.9,-1.9 z m -284.5,68.1 c -4.2,0 -8,-2.1 -10.3,-5.6 -17.7,-27.3 -27.1,-58.6 -27.1,-90.6 v -0.4 c 0,-6.8 5.6,-12.3 12.4,-12.3 h 0.1 c 22.8,0.2 45.4,3.2 67.1,8.8 8.8,2.3 15.5,8.9 17.9,17.7 2.4,8.7 0,17.8 -6.3,24.2 -16.1,16.2 -30.7,34 -43.6,52.8 -2.3,3.4 -6.1,5.4 -10.2,5.4 z M 644.1,367.5 v 3.6 c -2.9,0 -5.2,2.3 -5.2,5.1 v 0.4 c 0,30.6 9,60.6 26,86.7 1,1.5 2.5,2.3 4.3,2.3 1.7,0 3.3,-0.8 4.3,-2.3 13.1,-19.1 28,-37.2 44.4,-53.8 4.5,-4.6 6.2,-11 4.5,-17.3 -1.7,-6.3 -6.5,-11 -12.8,-12.6 -21.2,-5.5 -43.2,-8.4 -65.4,-8.6 z m 313.2,21.6 c -23,-0.2 -45.6,-3.2 -67.4,-8.8 -8.8,-2.3 -15.5,-8.9 -17.9,-17.7 -2.4,-8.7 0,-17.8 6.3,-24.2 16.1,-16.3 30.8,-34.1 43.7,-52.9 2.3,-3.4 6.1,-5.4 10.2,-5.4 4.2,0 8,2.1 10.3,5.6 17.8,27.3 27.2,58.7 27.2,90.7 v 0.4 c -0.1,6.8 -5.6,12.3 -12.4,12.3 z M 932.1,287.3 c -1.7,0 -3.3,0.8 -4.3,2.3 -13.1,19.2 -28.1,37.3 -44.5,53.9 -4.5,4.6 -6.2,11 -4.5,17.3 1.7,6.3 6.5,11 12.8,12.6 21.2,5.5 43.3,8.4 65.5,8.6 2.9,0 5.2,-2.3 5.2,-5.1 v -0.4 c 0,-30.6 -9,-60.7 -26.1,-86.8 -0.7,-1.6 -2.3,-2.4 -4.1,-2.4 z m -284.4,68.1 c -3.7,0 -7.2,-1.7 -9.6,-4.6 -2.3,-2.9 -3.2,-6.6 -2.4,-10.3 6.9,-31.7 22.7,-60.6 45.8,-83.6 2.3,-2.3 5.4,-3.6 8.7,-3.6 3.4,0 6.5,1.3 8.8,3.7 16,16.3 29.8,34.3 41.2,53.7 4.6,7.9 4.7,17.3 0.2,25.2 -4.5,7.9 -12.6,12.6 -21.6,12.7 -23.1,0.1 -46.2,2.4 -68.8,6.6 -0.8,0.2 -1.6,0.2 -2.3,0.2 z m 42.4,-94.9 c -1.4,0 -2.7,0.5 -3.6,1.5 -22.1,22 -37.2,49.7 -43.8,80.1 -0.4,2.1 0.4,3.6 1,4.3 1.2,1.5 3.1,2.2 5,1.9 23,-4.3 46.5,-6.6 70.1,-6.7 6.4,0 12.2,-3.4 15.4,-9 3.2,-5.7 3.2,-12.4 -0.1,-18 -11.1,-18.9 -24.6,-36.5 -40.2,-52.3 -1.1,-1.2 -2.4,-1.8 -3.8,-1.8 z m 163.5,59 c -13.8,0 -25.1,-11.2 -25.1,-24.9 -0.1,-23 -2.3,-46.2 -6.6,-68.7 -0.7,-3.6 0.3,-7.3 2.6,-10.1 2.4,-2.9 5.9,-4.5 9.6,-4.5 0.9,0 1.9,0.1 2.8,0.3 31.2,7 59.9,23 82.9,46.1 2.3,2.3 3.6,5.5 3.6,8.8 0,3.3 -1.3,6.5 -3.7,8.8 -16.1,15.8 -34.1,29.5 -53.3,40.8 -3.9,2.2 -8.3,3.4 -12.8,3.4 z m -19.5,-101 c -1.6,0 -3,0.7 -4,1.9 -1,1.2 -1.4,2.7 -1.1,4.2 4.3,23 6.6,46.5 6.7,70 0.1,11 9.4,17.8 17.9,17.8 3.2,0 6.2,-0.8 9.1,-2.5 18.7,-11 36.2,-24.4 51.9,-39.7 1,-1 1.6,-2.3 1.6,-3.7 0,-1.4 -0.5,-2.7 -1.5,-3.7 -22.1,-22.1 -49.5,-37.4 -79.4,-44.1 -0.4,-0.2 -0.8,-0.2 -1.2,-0.2 z m -54.2,87.6 c -6.6,0 -12.8,-2.6 -17.5,-7.2 -16.4,-16.2 -34.3,-31 -53.3,-44 -3.4,-2.3 -5.4,-6.2 -5.4,-10.3 0.1,-4.2 2.2,-8 5.7,-10.3 27.2,-17.5 58.7,-26.7 91.2,-26.7 h 0.1 c 3.4,0 6.5,1.3 8.8,3.6 2.3,2.4 3.6,5.5 3.6,8.8 -0.2,22.8 -3.2,45.4 -8.8,67.2 -2.8,11.2 -12.9,18.9 -24.4,18.9 z m 20.8,-91.4 v 0 c -31.1,0 -61.3,8.8 -87.4,25.6 -1.5,1 -2.4,2.6 -2.4,4.4 0,1.7 0.8,3.3 2.2,4.3 19.3,13.2 37.6,28.3 54.3,44.8 3.4,3.3 7.8,5.2 12.4,5.2 8.2,0 15.4,-5.5 17.5,-13.5 5.5,-21.2 8.4,-43.2 8.6,-65.5 0,-1.4 -0.5,-2.7 -1.5,-3.7 -1,-1 -2.2,-1.5 -3.6,-1.5 z"
   id="path86" />
		</g>
		<g
   id="g92">
			<path
   fill="#3d3d3d"
   d="m 800.7,415.4 c -21.4,0 -38.9,-17.4 -38.9,-38.9 0,-21.4 17.4,-38.9 38.9,-38.9 21.4,0 38.9,17.4 38.9,38.9 -0.1,21.4 -17.5,38.9 -38.9,38.9 z m 0,-70.6 c -17.5,0 -31.7,14.2 -31.7,31.7 0,17.5 14.2,31.7 31.7,31.7 17.5,0 31.7,-14.2 31.7,-31.7 0,-17.5 -14.2,-31.7 -31.7,-31.7 z"
   id="path90" />
		</g>
		<g
   id="g102">
			<g
   id="g96">
				<path
   fill="#3d3d3d"
   d="m 800.7,331.6 c -5.3,0 -9.6,-4.3 -9.6,-9.6 0,-5.3 4.3,-9.6 9.6,-9.6 5.3,0 9.6,4.3 9.6,9.6 0,5.3 -4.3,9.6 -9.6,9.6 z m 0,-12.1 c -1.3,0 -2.4,1.1 -2.4,2.4 0,1.3 1.1,2.4 2.4,2.4 1.3,0 2.4,-1.1 2.4,-2.4 0,-1.3 -1.1,-2.4 -2.4,-2.4 z"
   id="path94" />
			</g>
			<g
   id="g100">
				<path
   fill="#3d3d3d"
   d="m 800.7,437.8 c -5.3,0 -9.6,-4.3 -9.6,-9.6 0,-5.3 4.3,-9.6 9.6,-9.6 5.3,0 9.6,4.3 9.6,9.6 0,5.3 -4.3,9.6 -9.6,9.6 z m 0,-12.1 c -1.3,0 -2.4,1.1 -2.4,2.4 0,1.3 1.1,2.4 2.4,2.4 1.3,0 2.4,-1.1 2.4,-2.4 0,-1.3 -1.1,-2.4 -2.4,-2.4 z"
   id="path98" />
			</g>
		</g>
		<g
   id="g112">
			<g
   id="g106">
				<path
   fill="#3d3d3d"
   d="m 838.3,347.1 c -2.6,0 -5,-1 -6.8,-2.8 -3.8,-3.8 -3.8,-9.9 0,-13.6 1.8,-1.8 4.2,-2.8 6.8,-2.8 2.6,0 5,1 6.8,2.8 3.8,3.8 3.8,9.9 0,13.6 -1.9,1.8 -4.3,2.8 -6.8,2.8 z m 0,-12 c -0.7,0 -1.3,0.3 -1.7,0.7 -1,1 -1,2.5 0,3.5 0.9,0.9 2.5,0.9 3.5,0 1,-1 1,-2.5 0,-3.5 -0.6,-0.5 -1.2,-0.7 -1.8,-0.7 z"
   id="path104" />
			</g>
			<g
   id="g110">
				<path
   fill="#3d3d3d"
   d="m 763.1,422.2 c -2.6,0 -5,-1 -6.8,-2.8 -3.8,-3.8 -3.8,-9.9 0,-13.6 1.8,-1.8 4.2,-2.8 6.8,-2.8 v 0 c 2.6,0 5,1 6.8,2.8 3.8,3.8 3.8,9.9 0,13.6 -1.8,1.8 -4.2,2.8 -6.8,2.8 z m 0,-12 c -0.7,0 -1.3,0.3 -1.7,0.7 -1,1 -1,2.5 0,3.5 0.9,0.9 2.5,0.9 3.5,0 1,-1 1,-2.5 0,-3.5 -0.5,-0.5 -1.1,-0.7 -1.8,-0.7 z"
   id="path108" />
			</g>
		</g>
		<g
   id="g122">
			<g
   id="g116">
				<path
   fill="#3d3d3d"
   d="m 853.8,384.7 c -5.3,0 -9.6,-4.3 -9.6,-9.6 0,-5.3 4.3,-9.6 9.6,-9.6 5.3,0 9.6,4.3 9.6,9.6 0,5.3 -4.3,9.6 -9.6,9.6 z m 0,-12.1 c -1.3,0 -2.4,1.1 -2.4,2.4 0,1.3 1.1,2.4 2.4,2.4 1.3,0 2.4,-1.1 2.4,-2.4 0.1,-1.3 -1,-2.4 -2.4,-2.4 z"
   id="path114" />
			</g>
			<g
   id="g120">
				<path
   fill="#3d3d3d"
   d="m 747.6,384.7 c -5.3,0 -9.6,-4.3 -9.6,-9.6 0,-5.3 4.3,-9.6 9.6,-9.6 5.3,0 9.6,4.3 9.6,9.6 0,5.3 -4.3,9.6 -9.6,9.6 z m 0,-12.1 c -1.3,0 -2.4,1.1 -2.4,2.4 0,1.3 1.1,2.4 2.4,2.4 1.3,0 2.4,-1.1 2.4,-2.4 0,-1.3 -1.1,-2.4 -2.4,-2.4 z"
   id="path118" />
			</g>
		</g>
		<g
   id="g132">
			<g
   id="g126">
				<path
   fill="#3d3d3d"
   d="m 838.3,422.2 c -2.6,0 -5,-1 -6.8,-2.8 -3.8,-3.8 -3.8,-9.9 0,-13.6 1.8,-1.8 4.2,-2.8 6.8,-2.8 2.6,0 5,1 6.8,2.8 3.8,3.8 3.8,9.9 0,13.6 -1.9,1.8 -4.3,2.8 -6.8,2.8 z m 0,-12 c -0.7,0 -1.3,0.3 -1.7,0.7 -1,1 -1,2.5 0,3.5 0.9,0.9 2.5,0.9 3.5,0 1,-1 1,-2.5 0,-3.5 -0.6,-0.5 -1.2,-0.7 -1.8,-0.7 z"
   id="path124" />
			</g>
			<g
   id="g130">
				<path
   fill="#3d3d3d"
   d="m 763.1,347.1 c -2.6,0 -5,-1 -6.8,-2.8 -1.8,-1.8 -2.8,-4.2 -2.8,-6.8 0,-2.6 1,-5 2.8,-6.8 1.8,-1.8 4.2,-2.8 6.8,-2.8 2.6,0 5,1 6.8,2.8 3.8,3.8 3.8,9.9 0,13.6 -1.8,1.8 -4.2,2.8 -6.8,2.8 z m 0,-12 c -0.7,0 -1.3,0.3 -1.7,0.7 -0.5,0.5 -0.7,1.1 -0.7,1.7 0,0.6 0.3,1.3 0.7,1.7 0.9,0.9 2.5,0.9 3.5,0 1,-1 1,-2.5 0,-3.5 -0.5,-0.4 -1.1,-0.6 -1.8,-0.6 z"
   id="path128" />
			</g>
		</g>
	</g>
</svg>
